<?xml version="1.0" standalone="no"?>
<!DOCTYPE svg PUBLIC "-//W3C//DTD SVG 20010904//EN"
 "http://www.w3.org/TR/2001/REC-SVG-20010904/DTD/svg10.dtd">
<svg version="1.0" xmlns="http://www.w3.org/2000/svg"
 width="700.000000pt" height="700.000000pt" viewBox="0 0 700.000000 700.000000"
 preserveAspectRatio="xMidYMid meet">
<metadata>
Created by potrace 1.14, written by Peter Selinger 2001-2017
</metadata>
<g transform="translate(0.000000,700.000000) scale(0.100000,-0.100000)"
fill="#000000" stroke="none">
<path d="M3278 6996 c-1 -2 -41 -6 -88 -10 -47 -4 -96 -8 -110 -10 -14 -2 -46
-7 -71 -10 -433 -60 -870 -211 -1264 -439 -103 -60 -265 -165 -315 -204 -8 -6
-51 -40 -95 -74 -351 -273 -674 -652 -897 -1054 -49 -87 -148 -289 -148 -301
0 -2 -9 -23 -20 -47 -57 -123 -157 -435 -186 -582 -2 -11 -10 -54 -19 -95 -29
-147 -36 -200 -52 -370 -15 -164 -8 -592 12 -711 2 -13 6 -46 9 -74 9 -78 22
-152 51 -285 21 -96 91 -339 114 -395 5 -11 25 -65 46 -120 64 -170 213 -461
314 -615 214 -324 467 -601 775 -848 89 -72 367 -262 382 -262 4 0 15 -6 23
-14 29 -25 304 -161 431 -213 270 -110 569 -192 839 -229 25 -3 57 -8 71 -10
163 -25 682 -25 842 1 13 2 46 7 73 10 72 10 86 12 120 19 17 3 44 8 60 11
343 65 740 212 1039 384 49 28 91 51 93 51 10 0 268 180 353 247 152 119 324
280 450 422 36 41 70 79 76 85 65 68 263 353 352 508 47 80 182 351 182 364 0
3 8 24 19 47 53 118 147 417 177 562 17 81 54 301 59 350 4 33 9 71 11 85 9
47 11 525 3 605 -15 165 -21 220 -24 225 -2 3 -6 30 -10 60 -9 75 -69 337 -99
435 -189 622 -520 1150 -997 1590 -410 378 -946 668 -1487 805 -121 30 -244
56 -312 65 -19 3 -46 7 -60 10 -13 2 -52 7 -86 11 -33 3 -74 8 -90 10 -33 5
-540 14 -546 10z m571 -1461 c42 -3 87 -7 101 -9 96 -12 139 -19 170 -26 19
-5 46 -11 60 -14 41 -8 198 -56 253 -77 565 -218 1007 -671 1203 -1233 39
-113 81 -275 90 -351 4 -27 8 -52 10 -55 15 -26 21 -348 9 -465 -10 -103 -29
-211 -51 -300 -73 -291 -215 -575 -396 -798 -68 -84 -248 -260 -333 -326 -161
-126 -405 -257 -594 -321 -102 -34 -269 -75 -341 -84 -25 -3 -56 -9 -70 -13
-33 -10 -2323 -10 -2331 0 -3 4 -4 265 -3 580 2 314 5 1200 8 1967 3 767 5
1427 6 1467 l0 72 1066 -4 c587 -2 1101 -7 1143 -10z"/>
<path d="M2239 5005 c-2 -67 -10 -2418 -9 -2865 l0 -85 278 1 c152 0 282 2
289 2 8 2 12 194 13 760 1 416 2 954 3 1194 l2 438 40 0 c279 2 846 -1 862 -4
12 -3 43 -8 69 -12 176 -26 372 -131 502 -269 170 -178 251 -372 257 -610 7
-268 -80 -489 -264 -677 -156 -158 -386 -263 -591 -271 l-65 -2 0 284 c0 186
3 284 10 287 5 2 28 6 50 9 98 14 210 97 253 187 64 138 38 294 -68 398 -44
44 -115 86 -162 96 -13 3 -89 6 -170 8 l-148 3 -1 -96 c0 -53 -2 -464 -3 -914
l-4 -818 205 2 c112 1 230 6 261 11 31 4 73 11 92 13 19 3 53 10 75 16 22 6
47 12 55 14 43 9 156 53 245 95 298 143 533 375 685 678 153 305 194 657 116
995 -96 414 -376 773 -762 979 -107 57 -306 124 -424 143 -25 4 -54 9 -65 12
-34 8 -437 14 -1043 16 -576 2 -582 2 -583 -18z"/>
</g>
</svg>
